<svg xmlns="http://www.w3.org/2000/svg" width="13.488" height="12" viewBox="0 0 13.488 12"><path d="M6.744,12a.791.791,0,0,1-.521-.2c-.545-.476-1.07-.924-1.534-1.319l0,0A28.523,28.523,0,0,1,1.338,7.34,5.02,5.02,0,0,1,0,4.054,4.216,4.216,0,0,1,1.07,1.174,3.627,3.627,0,0,1,3.768,0,3.393,3.393,0,0,1,5.887.732a4.336,4.336,0,0,1,.857.895A4.336,4.336,0,0,1,7.6.732,3.393,3.393,0,0,1,9.72,0a3.627,3.627,0,0,1,2.7,1.174,4.216,4.216,0,0,1,1.07,2.879A5.02,5.02,0,0,1,12.15,7.34,28.52,28.52,0,0,1,8.8,10.483c-.464.4-.99.844-1.537,1.322a.792.792,0,0,1-.521.2ZM3.768.79a2.846,2.846,0,0,0-2.117.92A3.429,3.429,0,0,0,.79,4.054,4.224,4.224,0,0,0,1.946,6.836,28.069,28.069,0,0,0,5.2,9.882l0,0c.465.4.993.846,1.542,1.326.552-.481,1.08-.931,1.547-1.328a28.076,28.076,0,0,0,3.253-3.046A4.224,4.224,0,0,0,12.7,4.054a3.429,3.429,0,0,0-.861-2.344A2.845,2.845,0,0,0,9.72.79a2.62,2.62,0,0,0-1.636.566,3.834,3.834,0,0,0-.912,1.055.5.5,0,0,1-.857,0A3.83,3.83,0,0,0,5.4,1.357,2.62,2.62,0,0,0,3.768.79Zm0,0" transform="translate(0)"/></svg>